<svg xmlns="http://www.w3.org/2000/svg" viewBox="0 0 48 48" width="20" height="20">
  <path fill="#4285F4" d="M24 9.5c3.5 0 6.6 1.2 9 3.5l6.7-6.7C35.3 2.4 30.1 0 24 0 14.6 0 6.6 5.5 2.7 13.5l7.8 6C12.1 13.1 17.6 9.5 24 9.5z"/>
  <path fill="#34A853" d="M46.1 24.5c0-1.6-.1-2.8-.4-4H24v7.5h12.5c-.6 3-2.4 5.5-5.1 7.1l7.9 6c4.7-4.3 7.8-10.7 7.8-16.6z"/>
  <path fill="#FBBC05" d="M10.5 28.9c-1.2-3-1.2-6.4 0-9.4l-7.8-6C.6 18.5 0 21.2 0 24s.6 5.5 1.7 8l8.8-3.1z"/>
  <path fill="#EA4335" d="M24 48c6.5 0 11.9-2.1 15.8-5.7l-7.9-6c-2.2 1.5-5 2.4-7.9 2.4-6.4 0-11.9-4.3-13.8-10.1l-8.8 3.1C6.6 42.5 14.6 48 24 48z"/>
  <path fill="none" d="M0 0h48v48H0z"/>
</svg>